<svg id="Layer_1" enable-background="new 0 0 512 512" height="512" viewBox="0 0 512 512" width="512" xmlns="http://www.w3.org/2000/svg"><g><path d="m134.566 473.756c-20.585 0-34.81-12.359-42.43-24.765-7.616-12.406-9.156-27.6-4.184-41.28 4.722-11.889 3.783-25.276-2.562-36.386-.932-1.55-2.724-2.368-4.508-2.064-33.789 5.755-58.982 34.671-59.733 69.161-.776 35.502 25.64 73.578 97.954 73.578z" fill="#ea8857"/><path d="m436.778 499.123v7.752c0 2.837-2.29 5.125-5.13 5.125h-312.54c-2.84 0-5.13-2.288-5.13-5.125v-7.772c0-17.422 14.15-31.548 31.61-31.548h16.01l-10.79-57.822c-4.69-25.115 6.68-49.66 27.07-62.817 5.73-3.696 12.19-6.503 19.2-8.162l11.2-.969h134.75l10.65.969c7.27 1.718 13.95 4.675 19.85 8.591 19.98 13.247 31.07 37.532 26.43 62.387l-10.79 57.822h16.01c17.45.001 31.6 14.137 31.6 31.569z" fill="#f7aa74"/><path d="m436.778 499.123v7.752c0 2.837-2.29 5.125-5.13 5.125h-20.31c1.94-.23 3.45-1.888 3.45-3.886v-8.981c0-17.442-14.15-31.578-31.61-31.578h-16.01l10.79-57.861c4.53-24.256-5.9-47.972-24.95-61.438-6.25-4.416-13.43-7.722-21.32-9.59l-3.71-.879h15.05l10.65.969c7.27 1.718 13.95 4.675 19.85 8.591 19.98 13.247 31.07 37.532 26.43 62.387l-10.79 57.822h16.01c17.45-.001 31.6 14.135 31.6 31.567z" fill="#ea8857"/><path d="m373.528 347.346c-27.35 22.797-61.54 35.224-97.58 35.224-36.2 0-70.63-12.587-98.07-35.654 5.73-3.696 12.19-6.503 19.2-8.162l11.2-.969h134.75l10.65.969c7.27 1.719 13.95 4.676 19.85 8.592z" fill="#ea8857"/><path d="m344.668 335.648v173.854c0 1.379-1.12 2.497-2.5 2.497h-22.26c-13.66 0-24.77-11.089-24.77-24.725v-76.003c0-10.879-8.86-19.72-19.76-19.72s-19.76 8.841-19.76 19.72v76.003c0 13.636-11.11 24.725-24.76 24.725h-22.26c-1.39 0-2.5-1.119-2.5-2.497v-174.603c0-.669.26-1.309.73-1.778s1.15-.719 1.78-.719l133.57.749c1.38.01 2.49 1.129 2.49 2.497z" fill="#ffc599"/><path d="m344.668 335.648v30.659c-21.05 10.639-44.46 16.264-68.72 16.264-24.66 0-48.49-5.834-69.85-16.853v-30.819c0-.669.26-1.309.73-1.778s1.15-.719 1.78-.719l133.57.749c1.38.01 2.49 1.129 2.49 2.497z" fill="#f7aa74"/><path d="m424.518 51.016v193.614c0 11.449-4.46 22.208-12.57 30.299l-46.22 45.754c-24.04 23.806-55.93 36.913-89.78 36.913-33.29 0-64.79-12.727-88.7-35.844l-48.35-46.743c-.03-.02-.06-.05-.09-.08-8.1-8.092-12.57-18.851-12.57-30.299v-191.806c0-2.847 1.62-5.454 4.17-6.713l59.6-29.52c.18-.09.36-.18.55-.25h.01c54.69-21.778 114.93-21.788 169.63-.03.13.06.27.11.39.17l59.6 27.742c2.64 1.229 4.33 3.876 4.33 6.793z" fill="#ffc599"/><path d="m424.518 51.016v193.614c0 11.449-4.46 22.208-12.57 30.299l-46.22 45.754c-6.6 6.533-13.78 12.258-21.44 17.123-20.25 12.887-43.78 19.79-68.34 19.79v-193.155s10.59-75.744-15.74-92.437c-18.7-11.858-34.85 6.693-52.29-4.975-20.44-13.676-20.81-34.935-17.36-50.689h.01c54.69-21.778 114.93-21.788 169.63-.03.13.06.27.11.39.17l35.63 16.583 23.97 11.159c2.64 1.23 4.33 3.877 4.33 6.794z" fill="#ffece1"/><path d="m420.188 44.223-23.97-11.159v199.089c0 11.449-8.45 29.6-16.33 44.495-10.09 19.081-35.6 61.158-35.6 61.158 7.66-4.865 14.84-10.589 21.44-17.123l46.22-45.754c8.11-8.092 12.57-18.851 12.57-30.299v-193.614c0-2.917-1.69-5.564-4.33-6.793z" fill="#ffd2bb"/><path d="m247.845 254.781v10.318c0 15.167 12.352 27.507 27.535 27.507s27.535-12.34 27.535-27.507v-10.318l-27.535-9.99z" fill="#ff6248"/><g fill="#ea8857"><path d="m212.741 135.278c0-6.897 5.623-12.508 12.534-12.508s12.535 5.611 12.535 12.508c0 4.138 3.358 7.492 7.5 7.492s7.5-3.355 7.5-7.492c0-15.159-12.352-27.493-27.535-27.493s-27.534 12.333-27.534 27.493c0 4.138 3.358 7.492 7.5 7.492s7.5-3.354 7.5-7.492z"/><path d="m325.483 107.785c-15.183 0-27.535 12.333-27.535 27.493 0 4.138 3.358 7.492 7.5 7.492s7.5-3.355 7.5-7.492c0-6.897 5.623-12.508 12.535-12.508s12.535 5.611 12.535 12.508c0 4.138 3.358 7.492 7.5 7.492s7.5-3.355 7.5-7.492c0-15.159-12.352-27.493-27.535-27.493z"/><path d="m335.449 226.768c-4.142 0-7.5 3.355-7.5 7.492 0 6.897-5.623 12.508-12.535 12.508h-20c-6.912 0-12.535-5.611-12.535-12.508v-39.91c0-4.138-3.358-7.492-7.5-7.492s-7.5 3.355-7.5 7.492v39.91c0 6.897-5.623 12.508-12.535 12.508h-20c-6.912 0-12.535-5.611-12.535-12.508 0-4.138-3.358-7.492-7.5-7.492s-7.5 3.355-7.5 7.492c0 15.159 12.352 27.493 27.535 27.493h20c7.887 0 15.01-3.329 20.035-8.653 5.025 5.324 12.148 8.653 20.035 8.653h20c15.183 0 27.535-12.333 27.535-27.493 0-4.138-3.358-7.492-7.5-7.492z"/></g><path d="m306.047 167.687c-.4-1.686-1.648-3.045-3.295-3.589-17.651-5.831-37.093-5.832-54.745 0-1.647.544-2.895 1.902-3.295 3.589-.401 1.687.103 3.46 1.329 4.686l25.802 25.777c.938.937 2.209 1.463 3.536 1.463s2.598-.526 3.536-1.463l25.803-25.777c1.226-1.226 1.73-2.999 1.329-4.686z" fill="#4a555b"/><g fill="#ea8857"><path d="m180.532.701c-3.414-.184-7.267-.235-11.607-.124-47.202 1.217-148.582 76.621-92.64 131.935 55.947 55.314 6.433 96.885 32.275 105.073 33.433 10.592 56.015-119.936 56.908-166.857.474-24.82 11.667-38.293 22.108-45.479 10.531-7.251 5.728-23.856-7.044-24.548z"/><path d="m381.835.576c-4.34-.111-8.193-.06-11.607.124-12.772.692-17.575 17.298-7.042 24.547 10.44 7.187 21.634 20.66 22.107 45.479.894 46.921 23.475 177.45 56.908 166.857 25.841-8.188-23.673-49.759 32.274-105.073 55.942-55.313-45.439-130.717-92.64-131.934z"/></g><g fill="#f7aa74"><ellipse cx="244.698" cy="223.697" rx="7.5" ry="7.492"/><ellipse cx="306.058" cy="223.703" rx="7.5" ry="7.492"/></g></g></svg>